<svg width="44" height="45" viewBox="0 0 44 45" fill="none" xmlns="http://www.w3.org/2000/svg">
<g clip-path="url(#clip0_1_72)">
<path d="M27.955 22.5435C27.6925 22.5428 27.4356 22.467 27.2148 22.325C26.994 22.1831 26.8184 21.9808 26.7089 21.7422C26.5993 21.5036 26.5604 21.2387 26.5967 20.9786C26.6329 20.7186 26.7429 20.4744 26.9135 20.2749L28.8968 17.9599L26.9135 15.6484C26.7932 15.5118 26.7011 15.3526 26.6427 15.1802C26.5843 15.0077 26.5608 14.8254 26.5734 14.6438C26.5861 14.4621 26.6347 14.2848 26.7164 14.1221C26.7981 13.9594 26.9114 13.8146 27.0495 13.696C27.1877 13.5774 27.348 13.4875 27.5212 13.4314C27.6944 13.3752 27.8771 13.3541 28.0585 13.3691C28.24 13.3841 28.4166 13.4351 28.5782 13.5189C28.7398 13.6028 28.8832 13.7179 28.9999 13.8576L31.7497 17.0662C31.9637 17.3155 32.0813 17.6332 32.0813 17.9616C32.0813 18.2901 31.9637 18.6078 31.7497 18.857L28.9999 22.0657C28.8705 22.216 28.7101 22.3365 28.5298 22.419C28.3494 22.5014 28.1533 22.5439 27.955 22.5435ZM16.0433 22.5435C15.845 22.5439 15.6489 22.5014 15.4685 22.419C15.2882 22.3365 15.1278 22.216 14.9984 22.0657L12.2486 18.857C12.0347 18.6078 11.9171 18.2901 11.9171 17.9616C11.9171 17.6332 12.0347 17.3155 12.2486 17.0662L14.9984 13.8576C15.116 13.7205 15.2594 13.6079 15.4205 13.5262C15.5816 13.4445 15.7572 13.3954 15.9373 13.3816C16.1174 13.3678 16.2985 13.3896 16.4701 13.4457C16.6418 13.5019 16.8007 13.5913 16.9378 13.7089C17.0749 13.8265 17.1875 13.9699 17.2692 14.1311C17.3509 14.2922 17.4 14.4678 17.4138 14.6479C17.4276 14.828 17.4058 15.009 17.3497 15.1807C17.2935 15.3523 17.2041 15.5113 17.0865 15.6484L15.1032 17.9599L17.0865 20.2732C17.2578 20.4728 17.3682 20.7173 17.4047 20.9777C17.4412 21.2382 17.4023 21.5037 17.2925 21.7426C17.1826 21.9816 17.0066 22.1841 16.7852 22.326C16.5638 22.468 16.3063 22.5434 16.0433 22.5435ZM20.3175 25.2589C20.1414 25.2184 19.975 25.1435 19.8279 25.0387C19.6807 24.9338 19.5557 24.8009 19.4599 24.6477C19.3641 24.4945 19.2995 24.3239 19.2697 24.1456C19.2399 23.9674 19.2456 23.7851 19.2863 23.609L22.0361 11.6938C22.1182 11.3383 22.3381 11.0299 22.6475 10.8366C22.9569 10.6432 23.3305 10.5806 23.686 10.6627C24.0415 10.7447 24.3499 10.9646 24.5433 11.2741C24.7366 11.5835 24.7992 11.957 24.7171 12.3125L21.9674 24.2277C21.9268 24.4038 21.852 24.5702 21.7471 24.7173C21.6423 24.8645 21.5094 24.9895 21.3562 25.0853C21.2029 25.1811 21.0323 25.2457 20.8541 25.2755C20.6759 25.3053 20.4935 25.2996 20.3175 25.2589Z" fill="#F857A6"/>
<path d="M40.7879 4.26758H3.20866C2.35892 4.27164 1.54515 4.611 0.944287 5.21187C0.343427 5.81273 0.00406687 6.6265 0 7.47623L0 32.2243C0.00406687 33.074 0.343427 33.8878 0.944287 34.4887C1.54515 35.0895 2.35892 35.4289 3.20866 35.433H17.2463C17.0315 36.3524 16.4609 37.839 14.9348 39.3686C14.8066 39.4967 14.7193 39.66 14.6839 39.8377C14.6485 40.0154 14.6667 40.1997 14.736 40.3671C14.8054 40.5345 14.9229 40.6776 15.0736 40.7783C15.2243 40.8789 15.4015 40.9326 15.5827 40.9325H28.4156C28.597 40.9329 28.7744 40.8795 28.9254 40.779C29.0763 40.6785 29.1941 40.5354 29.2636 40.3679C29.3332 40.2004 29.3515 40.016 29.3162 39.8381C29.2809 39.6602 29.1935 39.4968 29.0652 39.3686C27.5425 37.8459 26.9565 36.3541 26.7279 35.433H40.7896C41.6389 35.428 42.452 35.0883 43.0524 34.4876C43.6528 33.8869 43.9921 33.0736 43.9966 32.2243V7.47623C43.9912 6.62691 43.6514 5.81392 43.0508 5.21335C42.4502 4.61278 41.6372 4.27299 40.7879 4.26758ZM40.3308 28.0996H3.66581V7.9351H40.329V28.0996H40.3308Z" fill="#605DBA"/>
</g>
<defs>
<clipPath id="clip0_1_72">
<rect width="44" height="44" fill="white" transform="translate(0 0.600098)"/>
</clipPath>
</defs>
</svg>
