<svg width="44" height="45" viewBox="0 0 44 45" fill="none" xmlns="http://www.w3.org/2000/svg">
<g clip-path="url(#clip0_1_99)">
<path d="M30.5611 16.3312C30.58 16.1112 30.5972 15.8912 30.5972 15.6437C30.5972 15.3962 30.5766 15.1848 30.5611 14.9562L32.0822 13.8356C32.5257 13.5065 32.8338 13.0268 32.9487 12.4866C33.0636 11.9463 32.9773 11.3828 32.7061 10.9017L31.35 8.49886C31.0824 8.0077 30.6373 7.63734 30.1056 7.46354C29.574 7.28973 28.996 7.32562 28.49 7.56386L26.8125 8.35277C26.4789 8.12099 26.1298 7.91253 25.7675 7.72886L25.575 5.77121C25.5253 5.21648 25.2702 4.70031 24.8598 4.32386C24.4493 3.94742 23.913 3.73784 23.3561 3.73621H20.6422C20.0849 3.73741 19.5483 3.9468 19.1374 4.32329C18.7266 4.69977 18.4713 5.21618 18.4216 5.77121L18.2377 7.7323C17.8736 7.91576 17.5227 8.12422 17.1875 8.35621L15.5014 7.5673C14.9947 7.33326 14.4182 7.29958 13.8877 7.47301C13.3572 7.64645 12.912 8.01415 12.6414 8.5023L11.2922 10.9223C11.0183 11.4028 10.9306 11.9671 11.0456 12.508C11.1606 13.049 11.4704 13.5288 11.9161 13.8562L13.4372 14.9751C13.4166 15.1951 13.4011 15.4151 13.4011 15.6626C13.4011 15.9101 13.42 16.1232 13.4372 16.3501L11.9161 17.469C11.4738 17.7963 11.1664 18.274 11.0518 18.8121C10.9372 19.3503 11.0233 19.9118 11.2939 20.3909L12.65 22.8109C12.92 23.2996 13.3652 23.6679 13.8959 23.8414C14.4267 24.0149 15.0034 23.9808 15.51 23.7459L17.1961 22.957C17.5297 23.1888 17.8788 23.3972 18.2411 23.5809L18.425 25.542C18.4747 26.0967 18.7298 26.6129 19.1402 26.9893C19.5507 27.3658 20.087 27.5754 20.6439 27.577H23.3578C23.9151 27.5758 24.4517 27.3664 24.8626 26.9899C25.2734 26.6134 25.5287 26.097 25.5784 25.542L25.7623 23.5809C26.1246 23.3972 26.4738 23.1888 26.8073 22.957L28.4934 23.7459C28.9995 23.9841 29.5774 24.02 30.1091 23.8462C30.6407 23.6724 31.0858 23.3021 31.3534 22.8109L32.7078 20.3909C32.9817 19.9104 33.0694 19.3461 32.9544 18.8052C32.8394 18.2642 32.5296 17.7844 32.0839 17.457L30.5611 16.3312ZM26.5839 15.654C26.5839 16.5606 26.3151 17.4469 25.8114 18.2007C25.3077 18.9545 24.5918 19.5421 23.7542 19.889C22.9166 20.2359 21.9949 20.3267 21.1057 20.1498C20.2165 19.973 19.3998 19.5364 18.7587 18.8953C18.1176 18.2543 17.681 17.4375 17.5042 16.5483C17.3273 15.6591 17.4181 14.7374 17.765 13.8998C18.112 13.0622 18.6995 12.3463 19.4533 11.8426C20.2071 11.339 21.0934 11.0701 22 11.0701C23.2155 11.071 24.3809 11.5543 25.2403 12.4137C26.0998 13.2732 26.583 14.4386 26.5839 15.654Z" fill="#F857A6"/>
<path d="M38.5 29.4039H5.5C4.04131 29.4039 2.64236 29.9834 1.61091 31.0148C0.579463 32.0463 0 33.4452 0 34.9039C0 36.3626 0.579463 37.7616 1.61091 38.793C2.64236 39.8245 4.04131 40.4039 5.5 40.4039H38.5C39.9587 40.4039 41.3576 39.8245 42.3891 38.793C43.4205 37.7616 44 36.3626 44 34.9039C44 33.4452 43.4205 32.0463 42.3891 31.0148C41.3576 29.9834 39.9587 29.4039 38.5 29.4039ZM7.33391 36.7361C6.97112 36.7361 6.61649 36.6285 6.31486 36.4269C6.01324 36.2253 5.77819 35.9388 5.63943 35.6036C5.50068 35.2684 5.46446 34.8996 5.53536 34.5438C5.60627 34.188 5.7811 33.8612 6.03775 33.6048C6.2944 33.3484 6.62133 33.1739 6.97718 33.1033C7.33304 33.0328 7.70183 33.0693 8.0369 33.2084C8.37198 33.3475 8.65827 33.5828 8.85958 33.8846C9.06088 34.1864 9.16815 34.5411 9.16781 34.9039C9.16736 35.39 8.97394 35.856 8.63007 36.1996C8.28619 36.5431 7.81999 36.7361 7.33391 36.7361ZM16.5 36.7361C16.1372 36.7361 15.7826 36.6285 15.481 36.4269C15.1793 36.2253 14.9443 35.9388 14.8055 35.6036C14.6668 35.2684 14.6306 34.8996 14.7015 34.5438C14.7724 34.188 14.9472 33.8612 15.2038 33.6048C15.4605 33.3484 15.7874 33.1739 16.1433 33.1033C16.4991 33.0328 16.8679 33.0693 17.203 33.2084C17.5381 33.3475 17.8244 33.5828 18.0257 33.8846C18.227 34.1864 18.3342 34.5411 18.3339 34.9039C18.3335 35.39 18.14 35.856 17.7962 36.1996C17.4523 36.5431 16.9861 36.7361 16.5 36.7361ZM27.5 36.7361C27.1372 36.7361 26.7826 36.6285 26.481 36.4269C26.1793 36.2253 25.9443 35.9388 25.8055 35.6036C25.6668 35.2684 25.6306 34.8996 25.7015 34.5438C25.7724 34.188 25.9472 33.8612 26.2038 33.6048C26.4605 33.3484 26.7874 33.1739 27.1433 33.1033C27.4991 33.0328 27.8679 33.0693 28.203 33.2084C28.5381 33.3475 28.8244 33.5828 29.0257 33.8846C29.227 34.1864 29.3342 34.5411 29.3339 34.9039C29.3335 35.39 29.14 35.856 28.7962 36.1996C28.4523 36.5431 27.9861 36.7361 27.5 36.7361ZM36.6661 36.7361C36.3033 36.7361 35.9487 36.6285 35.6471 36.4269C35.3454 36.2253 35.1104 35.9388 34.9716 35.6036C34.8329 35.2684 34.7966 34.8996 34.8675 34.5438C34.9385 34.188 35.1133 33.8612 35.3699 33.6048C35.6266 33.3484 35.9535 33.1739 36.3094 33.1033C36.6652 33.0328 37.034 33.0693 37.3691 33.2084C37.7042 33.3475 37.9905 33.5828 38.1918 33.8846C38.3931 34.1864 38.5003 34.5411 38.5 34.9039C38.4995 35.39 38.3061 35.856 37.9623 36.1996C37.6184 36.5431 37.1522 36.7361 36.6661 36.7361Z" fill="#605DBA"/>
</g>
<defs>
<clipPath id="clip0_1_99">
<rect width="44" height="44" fill="white" transform="translate(0 0.0700684)"/>
</clipPath>
</defs>
</svg>
