<svg width="31" height="31" viewBox="0 0 31 31" fill="none" xmlns="http://www.w3.org/2000/svg">
<g clip-path="url(#clip0_1_273)">
<path d="M22.75 3.67529H2.74961C2.08696 3.67622 1.45171 3.93987 0.983146 4.40844C0.51458 4.87701 0.25093 5.51225 0.25 6.1749L0.25 17.4249C0.25093 18.0876 0.51458 18.7228 0.983146 19.1914C1.45171 19.6599 2.08696 19.9236 2.74961 19.9245H22.75C23.4127 19.9236 24.0479 19.6599 24.5165 19.1914C24.985 18.7228 25.2487 18.0876 25.2496 17.4249V6.1749C25.2487 5.51225 24.985 4.87701 24.5165 4.40844C24.0479 3.93987 23.4127 3.67622 22.75 3.67529ZM22.75 9.30029L14.125 13.6503C13.7011 13.8729 13.2292 13.9888 12.7504 13.9878C12.2656 13.9902 11.7881 13.8692 11.3629 13.6362L2.75078 9.30029V7.20029L12.2254 11.9757C12.3847 12.0605 12.5619 12.1059 12.7424 12.1082C12.9228 12.1104 13.1012 12.0694 13.2625 11.9886L22.7547 7.20029L22.75 9.30029Z" fill="#605DBA"/>
<path d="M27.7504 11.1753V17.4249C27.7488 18.7506 27.2215 20.0216 26.2841 20.959C25.3467 21.8964 24.0757 22.4237 22.75 22.4253H5.25039V24.9249C5.25132 25.5876 5.51497 26.2228 5.98354 26.6914C6.4521 27.1599 7.08735 27.4236 7.75 27.4245H27.7504C28.413 27.4236 29.0483 27.1599 29.5169 26.6914C29.9854 26.2228 30.2491 25.5876 30.25 24.9249V13.6749C30.2491 13.0123 29.9854 12.377 29.5169 11.9084C29.0483 11.4399 28.413 11.1762 27.7504 11.1753Z" fill="#F857A6"/>
</g>
<defs>
<clipPath id="clip0_1_273">
<rect width="30" height="30" fill="white" transform="translate(0.25 0.549805)"/>
</clipPath>
</defs>
</svg>
