<svg width="45" height="45" viewBox="0 0 45 45" fill="none" xmlns="http://www.w3.org/2000/svg">
<g clip-path="url(#clip0_1_131)">
<path d="M22.44 32.056C24.4647 32.056 26.1061 30.4146 26.1061 28.3899C26.1061 26.3652 24.4647 24.7238 22.44 24.7238C20.4153 24.7238 18.7739 26.3652 18.7739 28.3899C18.7739 30.4146 20.4153 32.056 22.44 32.056Z" fill="#F857A6"/>
<path d="M28.3989 43.056H16.4828C16.1181 43.056 15.7684 42.9111 15.5105 42.6532C15.2527 42.3954 15.1078 42.0456 15.1078 41.681V38.931C15.1092 37.5944 15.6407 36.313 16.5858 35.3679C17.5309 34.4228 18.8123 33.8912 20.1489 33.8899H24.7328C26.0695 33.8908 27.3512 34.4222 28.2964 35.3674C29.2416 36.3126 29.773 37.5943 29.7739 38.931V41.681C29.7739 42.0456 29.629 42.3954 29.3712 42.6532C29.1133 42.9111 28.7636 43.056 28.3989 43.056ZM33.8989 32.056H31.46C32.3802 32.9483 33.1109 34.0171 33.6085 35.1984C34.1061 36.3797 34.3604 37.6492 34.3561 38.931V39.3899H37.565C37.9288 39.3872 38.277 39.2414 38.5343 38.9842C38.7915 38.7269 38.9373 38.3787 38.94 38.0149V37.0988C38.9404 36.4366 38.8104 35.7808 38.5572 35.1688C38.304 34.5569 37.9328 34.0009 37.4646 33.5326C36.9964 33.0642 36.4405 32.6928 35.8287 32.4394C35.2169 32.186 34.5611 32.0557 33.8989 32.056ZM10.9811 32.056C10.3188 32.0555 9.66293 32.1857 9.051 32.4389C8.43907 32.6922 7.88309 33.0637 7.41486 33.5321C6.94664 34.0005 6.57537 34.5566 6.32229 35.1686C6.06922 35.7806 5.9393 36.4365 5.93998 37.0988V38.0183C5.94268 38.3822 6.08841 38.7303 6.34569 38.9876C6.60297 39.2449 6.95114 39.3906 7.31498 39.3933H10.5239V38.9344C10.5196 37.6526 10.7738 36.3831 11.2714 35.2018C11.7691 34.0205 12.4998 32.9518 13.42 32.0594L10.9811 32.056Z" fill="#F857A6"/>
<path d="M13.2739 30.2221C15.2986 30.2221 16.94 28.5807 16.94 26.556C16.94 24.5313 15.2986 22.8899 13.2739 22.8899C11.2492 22.8899 9.60779 24.5313 9.60779 26.556C9.60779 28.5807 11.2492 30.2221 13.2739 30.2221Z" fill="#F857A6"/>
<path d="M31.6061 30.2221C33.6308 30.2221 35.2722 28.5807 35.2722 26.556C35.2722 24.5313 33.6308 22.8899 31.6061 22.8899C29.5813 22.8899 27.94 24.5313 27.94 26.556C27.94 28.5807 29.5813 30.2221 31.6061 30.2221Z" fill="#F857A6"/>
<path d="M5.11498 30.7291C5.57813 30.3012 6.0851 29.9233 6.62748 29.6016C5.87673 27.9821 5.7453 26.1437 6.25801 24.4338C6.77073 22.724 7.89208 21.2612 9.41008 20.322C10.9281 19.3828 12.7376 19.0322 14.4965 19.3366C16.2554 19.641 17.8419 20.5791 18.9561 21.9738C20.0179 21.3699 21.2184 21.0524 22.44 21.0524C23.6615 21.0524 24.8621 21.3699 25.9239 21.9738C27.038 20.5791 28.6245 19.641 30.3835 19.3366C32.1424 19.0322 33.9519 19.3828 35.4699 20.322C36.9879 21.2612 38.1092 22.724 38.6219 24.4338C39.1347 26.1437 39.0032 27.9821 38.2525 29.6016C38.6009 29.8091 38.9356 30.0387 39.2545 30.2891C41.1936 29.0716 42.7074 27.2826 43.5873 25.1687C44.4672 23.0549 44.6699 20.7202 44.1674 18.4863C43.665 16.2524 42.4822 14.2294 40.782 12.6958C39.0817 11.1623 36.9477 10.1937 34.674 9.92366C33.4638 7.74026 31.6907 5.92091 29.5392 4.65474C27.3878 3.38858 24.9364 2.72183 22.44 2.72382C15.9414 2.72382 10.3039 7.24413 8.87904 13.411C4.14217 13.9077 0.43998 17.8866 0.43998 22.706C0.43998 26.1315 2.3306 29.1015 5.11498 30.7291Z" fill="#605DBA"/>
</g>
<defs>
<clipPath id="clip0_1_131">
<rect width="44" height="44" fill="white" transform="translate(0.43998 0.889893)"/>
</clipPath>
</defs>
</svg>
