<svg width="31" height="31" viewBox="0 0 31 31" fill="none" xmlns="http://www.w3.org/2000/svg">
<g clip-path="url(#clip0_1_263)">
<path d="M1.50039 30.7605C1.25302 30.7602 1.01129 30.6866 0.805732 30.549C0.600175 30.4114 0.440009 30.2159 0.345463 29.9873C0.250918 29.7587 0.226232 29.5072 0.274524 29.2646C0.322817 29.022 0.441921 28.7992 0.616796 28.6242L10.7043 18.5461C10.939 18.3117 11.2571 18.1802 11.5887 18.1804C11.9204 18.1806 12.2383 18.3126 12.4727 18.5472C12.707 18.7819 12.8385 19.1 12.8383 19.4317C12.8381 19.7633 12.7061 20.0813 12.4715 20.3156L2.38398 30.3937C2.26822 30.5102 2.13053 30.6026 1.97888 30.6655C1.82722 30.7285 1.66459 30.7608 1.50039 30.7605Z" fill="#F857A6"/>
<path d="M29.6102 10.2389L20.7719 1.39943C20.3551 1.0017 19.8011 0.779785 19.225 0.779785C18.6489 0.779785 18.0949 1.0017 17.6781 1.39943L16.457 2.62052C16.0354 3.03947 15.7394 3.56805 15.6025 4.14647C15.4656 4.72489 15.4933 5.33007 15.6824 5.89357C15.7616 6.12647 15.7741 6.37689 15.7183 6.6165C15.6626 6.8561 15.541 7.07535 15.3672 7.24943L11.7789 10.833C11.4874 11.1248 11.0921 11.2892 10.6797 11.2901H9.21016C8.75877 11.2888 8.31162 11.3771 7.89461 11.5499C7.47761 11.7227 7.09905 11.9765 6.78086 12.2967L6.18789 12.8897C5.98465 13.0927 5.82341 13.3339 5.71341 13.5993C5.6034 13.8647 5.54678 14.1492 5.54678 14.4365C5.54678 14.7239 5.6034 15.0084 5.71341 15.2738C5.82341 15.5392 5.98465 15.7803 6.18789 15.9834L15.0262 24.8217C15.2291 25.0252 15.4702 25.1867 15.7356 25.2969C16.0011 25.4071 16.2856 25.4638 16.573 25.4638C16.8604 25.4638 17.145 25.4071 17.4105 25.2969C17.6759 25.1867 17.917 25.0252 18.1199 24.8217L18.7129 24.2276C19.033 23.9093 19.2868 23.5308 19.4596 23.1138C19.6324 22.6968 19.7207 22.2496 19.7195 21.7983V20.3334C19.7212 19.9195 19.8858 19.5229 20.1777 19.2295L23.7602 15.6459C23.9335 15.471 24.1525 15.3482 24.3922 15.2914C24.6318 15.2347 24.8826 15.2462 25.116 15.3248C25.6792 15.5144 26.2842 15.5425 26.8625 15.4058C27.4408 15.2691 27.9692 14.9731 28.3879 14.5514L29.609 13.3303C29.812 13.1273 29.9731 12.8864 30.083 12.6211C30.1928 12.3559 30.2494 12.0717 30.2494 11.7846C30.2494 11.4975 30.1928 11.2132 30.083 10.948C29.9731 10.6828 29.812 10.4418 29.609 10.2389H29.6102Z" fill="#605DBA"/>
</g>
<defs>
<clipPath id="clip0_1_263">
<rect width="30" height="30" fill="white" transform="translate(0.25 0.77002)"/>
</clipPath>
</defs>
</svg>
