<svg width="45" height="45" viewBox="0 0 45 45" fill="none" xmlns="http://www.w3.org/2000/svg">
<g clip-path="url(#clip0_1_184)">
<path d="M12.9139 15.5989L12.3089 11.9895L12.5512 11.7489L11.8019 10.9789C11.2668 10.4376 10.891 9.75952 10.7158 9.01887C10.5406 8.27823 10.5726 7.50363 10.8084 6.77999C10.8273 6.72499 10.8428 6.68889 10.8634 6.63389L10.6228 6.5978L9.07592 3.3528C8.96509 3.11611 8.78908 2.9159 8.56854 2.77565C8.348 2.6354 8.09205 2.56091 7.83069 2.56091C7.56933 2.56091 7.31338 2.6354 7.09284 2.77565C6.8723 2.9159 6.69629 3.11611 6.58546 3.3528L5.05921 6.61843L1.67499 7.14608C1.42639 7.18786 1.19407 7.29717 1.0034 7.46207C0.812737 7.62697 0.671073 7.84111 0.593893 8.08108C0.514315 8.32118 0.503033 8.57867 0.561305 8.82481C0.619578 9.07095 0.745111 9.29605 0.923893 9.47499L3.4178 12.0239L2.82999 15.6333C2.79995 15.8296 2.81243 16.0301 2.86658 16.2212C2.92073 16.4123 3.01529 16.5895 3.14387 16.7409C3.27244 16.8923 3.43203 17.0143 3.61183 17.0987C3.79164 17.1831 3.98747 17.2278 4.18608 17.23C4.42603 17.2312 4.66244 17.1721 4.87358 17.0581L7.87967 15.372L10.9047 17.022C11.1323 17.1456 11.3895 17.204 11.6481 17.191C11.9067 17.178 12.1568 17.0939 12.3708 16.9481C12.5811 16.797 12.7445 16.5895 12.8421 16.3496C12.9397 16.1097 12.9676 15.8471 12.9225 15.592L12.9139 15.5989ZM44.4461 8.02608C44.3671 7.78557 44.2221 7.57212 44.0276 7.41012C43.8331 7.24813 43.5969 7.14412 43.3461 7.10999L39.955 6.59436L38.4081 3.34936C38.2975 3.11219 38.1215 2.91152 37.9007 2.77092C37.68 2.63032 37.4237 2.55563 37.162 2.55563C36.9003 2.55563 36.644 2.63032 36.4233 2.77092C36.2026 2.91152 36.0266 3.11219 35.9159 3.34936L34.3931 6.61499L34.192 6.65108C34.192 6.66999 34.2109 6.68718 34.2109 6.70608C34.4574 7.42107 34.5005 8.19046 34.3354 8.9285C34.1703 9.66655 33.8035 10.3443 33.2759 10.8861L32.4561 11.73L32.75 12.0239L32.1639 15.6333C32.1339 15.8296 32.1463 16.0301 32.2005 16.2212C32.2546 16.4123 32.3492 16.5895 32.4778 16.7409C32.6063 16.8923 32.7659 17.0143 32.9457 17.0987C33.1255 17.1831 33.3214 17.2278 33.52 17.23C33.7599 17.2312 33.9963 17.1721 34.2075 17.0581L37.2136 15.372L40.2386 17.022C40.4662 17.1456 40.7234 17.204 40.982 17.191C41.2406 17.178 41.4907 17.0939 41.7047 16.9481C41.9138 16.7959 42.0761 16.5883 42.1733 16.3486C42.2705 16.109 42.2987 15.8469 42.2547 15.592L41.6497 11.9826L44.1436 9.41827C44.3173 9.23546 44.438 9.00885 44.4928 8.76271C44.5476 8.51657 44.5344 8.26016 44.4547 8.02093L44.4461 8.02608Z" fill="#F857A6"/>
<path d="M17.7384 19.0639C17.5396 19.0641 17.343 19.0212 17.1624 18.9381C16.9817 18.855 16.8212 18.7337 16.692 18.5825C16.5628 18.4314 16.4678 18.254 16.4138 18.0626C16.3597 17.8713 16.3478 17.6705 16.3789 17.474L17.1713 12.524L13.7544 9.04357C13.5773 8.86338 13.4533 8.63787 13.3959 8.39181C13.3386 8.14575 13.3502 7.88865 13.4294 7.64873C13.5086 7.40881 13.6523 7.19535 13.8449 7.03179C14.0375 6.86823 14.2714 6.76088 14.5209 6.72154L19.177 5.99623L21.2584 1.52748C21.3679 1.29092 21.5424 1.09036 21.7615 0.949156C21.9806 0.807957 22.2353 0.731945 22.4959 0.72998C22.7564 0.73005 23.0114 0.804069 23.2314 0.943427C23.4514 1.08278 23.6273 1.28175 23.7386 1.51717L25.8509 5.96873L30.5122 6.66482C30.7623 6.70168 30.9973 6.80675 31.1916 6.96849C31.3858 7.13023 31.5317 7.34238 31.6132 7.58163C31.6947 7.82088 31.7088 8.07798 31.6537 8.32467C31.5986 8.57136 31.4766 8.79811 31.3011 8.97998L27.9014 12.4828L28.7264 17.4276C28.7693 17.6824 28.7395 17.9441 28.6406 18.1827C28.5416 18.4213 28.3774 18.6272 28.1668 18.7768C27.9562 18.9264 27.7077 19.0137 27.4498 19.0286C27.1919 19.0435 26.935 18.9854 26.7086 18.8611L22.5509 16.5837L18.4053 18.8903C18.2014 19.0037 17.9718 19.0628 17.7384 19.0622V19.0639Z" fill="#605DBA"/>
<path d="M7.8539 31.8961C9.87863 31.8961 11.52 30.2547 11.52 28.23C11.52 26.2052 9.87863 24.5639 7.8539 24.5639C5.82917 24.5639 4.18781 26.2052 4.18781 28.23C4.18781 30.2547 5.82917 31.8961 7.8539 31.8961Z" fill="#F857A6"/>
<path d="M12.7489 34.4639C11.7977 35.1803 11.0261 36.1081 10.4949 37.1738C9.96362 38.2395 9.68733 39.4142 9.6878 40.605V41.0639H1.89499C1.53115 41.0612 1.18298 40.9155 0.925701 40.6582C0.668421 40.4009 0.522689 40.0527 0.51999 39.6889V38.7728C0.519538 38.1106 0.649609 37.4548 0.902767 36.8429C1.15592 36.2309 1.5272 35.6749 1.99538 35.2066C2.46356 34.7382 3.01945 34.3668 3.63128 34.1134C4.2431 33.86 4.89887 33.7298 5.56108 33.73H10.145C11.0639 33.731 11.9647 33.9849 12.7489 34.4639Z" fill="#F857A6"/>
<path d="M37.1861 31.8961C39.2108 31.8961 40.8522 30.2547 40.8522 28.23C40.8522 26.2052 39.2108 24.5639 37.1861 24.5639C35.1614 24.5639 33.52 26.2052 33.52 28.23C33.52 30.2547 35.1614 31.8961 37.1861 31.8961Z" fill="#F857A6"/>
<path d="M44.52 38.7711V39.6872C44.5168 40.0509 44.371 40.3988 44.1138 40.656C43.8566 40.9132 43.5087 41.059 43.145 41.0622H35.3539V40.605C35.3546 39.4141 35.0784 38.2394 34.5472 37.1736C34.0159 36.1078 33.2441 35.1802 32.2928 34.4639C33.0763 33.9848 33.9766 33.7308 34.895 33.73H39.4789C40.1409 33.7298 40.7966 33.86 41.4083 34.1133C42.02 34.3665 42.5758 34.7378 43.044 35.206C43.5121 35.6741 43.8834 36.2299 44.1367 36.8417C44.39 37.4534 44.5202 38.109 44.52 38.7711Z" fill="#F857A6"/>
<path d="M22.52 32.8139C25.5576 32.8139 28.02 30.3514 28.02 27.3139C28.02 24.2763 25.5576 21.8139 22.52 21.8139C19.4824 21.8139 17.02 24.2763 17.02 27.3139C17.02 30.3514 19.4824 32.8139 22.52 32.8139Z" fill="#605DBA"/>
<path d="M27.5611 35.5639H17.4772C16.1405 35.5648 14.8588 36.0962 13.9136 37.0414C12.9684 37.9866 12.437 39.2683 12.4361 40.605V43.355C12.4361 43.7196 12.581 44.0694 12.8388 44.3272C13.0967 44.5851 13.4464 44.73 13.8111 44.73H31.2272C31.5919 44.73 31.9416 44.5851 32.1995 44.3272C32.4573 44.0694 32.6022 43.7196 32.6022 43.355V40.605C32.6013 39.2683 32.0699 37.9866 31.1247 37.0414C30.1795 36.0962 28.8978 35.5648 27.5611 35.5639Z" fill="#605DBA"/>
</g>
<defs>
<clipPath id="clip0_1_184">
<rect width="44" height="44" fill="white" transform="translate(0.519989 0.72998)"/>
</clipPath>
</defs>
</svg>
