<svg width="44" height="45" viewBox="0 0 44 45" fill="none" xmlns="http://www.w3.org/2000/svg">
<g clip-path="url(#clip0_1_82)">
<path d="M33.1972 6.81191C30.97 3.01563 26.6581 0.601074 21.9974 0.601074C16.0719 0.601074 10.9214 4.49187 9.55857 9.82109C5.2158 10.2937 1.83369 13.7892 1.83369 18.0151C1.83369 22.5624 5.75027 26.2642 10.5622 26.2642H31.8035C37.5159 26.2642 42.1629 21.8784 42.1629 16.4856C42.1629 11.5585 38.2841 7.44262 33.1972 6.81191Z" fill="#605DBA"/>
<path d="M42.1629 36.3468H29.3305V34.972C29.3296 34.1213 28.9912 33.3057 28.3897 32.7042C27.7882 32.1027 26.9726 31.7643 26.1219 31.7634H23.8311V25.3481C23.8311 24.8618 23.6379 24.3954 23.294 24.0515C22.9501 23.7076 22.4837 23.5144 21.9974 23.5144C21.5111 23.5144 21.0447 23.7076 20.7008 24.0515C20.3569 24.3954 20.1637 24.8618 20.1637 25.3481V31.7634H17.8729C17.0222 31.7643 16.2066 32.1027 15.6051 32.7042C15.0036 33.3057 14.6653 34.1213 14.6644 34.972V36.3468H1.83197C1.34564 36.3468 0.879235 36.54 0.535352 36.8839C0.191468 37.2278 -0.00172424 37.6942 -0.00172424 38.1805C-0.00172424 38.6668 0.191468 39.1332 0.535352 39.4771C0.879235 39.821 1.34564 40.0142 1.83197 40.0142H14.6661V41.389C14.6679 42.239 15.0063 43.0536 15.6073 43.6546C16.2083 44.2556 17.023 44.594 17.8729 44.5958H26.1219C26.9728 44.5945 27.7883 44.2558 28.3898 43.654C28.9913 43.0522 29.3296 42.2364 29.3305 41.3856V40.0108H42.1629C42.6492 40.0108 43.1156 39.8176 43.4595 39.4737C43.8034 39.1298 43.9966 38.6634 43.9966 38.1771C43.9966 37.6907 43.8034 37.2243 43.4595 36.8804C43.1156 36.5366 42.6492 36.3434 42.1629 36.3434V36.3468Z" fill="#F857A6"/>
</g>
<defs>
<clipPath id="clip0_1_82">
<rect width="44" height="44" fill="white" transform="translate(0 0.600098)"/>
</clipPath>
</defs>
</svg>
