<svg width="44" height="45" viewBox="0 0 44 45" fill="none" xmlns="http://www.w3.org/2000/svg">
<g clip-path="url(#clip0_1_87)">
<path d="M28.1497 3.35629C27.4783 2.34076 26.5645 1.50851 25.4908 0.934752C24.4171 0.360992 23.2174 0.0638039 22 0.0700425C18.8134 0.0700425 16.0239 2.09989 15.1009 4.94098C12.7634 5.39817 11 7.40223 11 9.78614C11 12.5172 13.3066 14.7361 16.1425 14.7361H27.0222C30.3188 14.7361 33 12.158 33 8.99036C33 6.20254 30.9237 3.85645 28.1497 3.35629Z" fill="#605DBA"/>
<path d="M38.5 28.9451C38.1353 28.9451 37.7856 28.8002 37.5277 28.5423C37.2699 28.2845 37.125 27.9347 37.125 27.5701V24.8201H6.875V27.5701C6.875 27.9347 6.73013 28.2845 6.47227 28.5423C6.21441 28.8002 5.86467 28.9451 5.5 28.9451C5.13533 28.9451 4.78559 28.8002 4.52773 28.5423C4.26987 28.2845 4.125 27.9347 4.125 27.5701V23.4451C4.125 23.0804 4.26987 22.7307 4.52773 22.4728C4.78559 22.2149 5.13533 22.0701 5.5 22.0701H38.5C38.8647 22.0701 39.2144 22.2149 39.4723 22.4728C39.7301 22.7307 39.875 23.0804 39.875 23.4451V27.5701C39.875 27.9347 39.7301 28.2845 39.4723 28.5423C39.2144 28.8002 38.8647 28.9451 38.5 28.9451Z" fill="#F857A6"/>
<path d="M22 29.4039C21.6353 29.4039 21.2856 29.2591 21.0277 29.0012C20.7699 28.7433 20.625 28.3936 20.625 28.0289V19.7789C20.625 19.4143 20.7699 19.0645 21.0277 18.8067C21.2856 18.5488 21.6353 18.4039 22 18.4039C22.3647 18.4039 22.7144 18.5488 22.9723 18.8067C23.2301 19.0645 23.375 19.4143 23.375 19.7789V28.0289C23.375 28.3936 23.2301 28.7433 22.9723 29.0012C22.7144 29.2591 22.3647 29.4039 22 29.4039Z" fill="#F857A6"/>
<path d="M5.5 36.7362C7.01878 36.7362 8.25 35.505 8.25 33.9862C8.25 32.4674 7.01878 31.2362 5.5 31.2362C3.98122 31.2362 2.75 32.4674 2.75 33.9862C2.75 35.505 3.98122 36.7362 5.5 36.7362Z" fill="#605DBA"/>
<path d="M6.875 38.5701H4.125C3.03098 38.5701 1.98177 39.0047 1.20818 39.7783C0.434597 40.5518 0 41.6011 0 42.6951C0 43.0597 0.144866 43.4095 0.402728 43.6673C0.660591 43.9252 1.01033 44.0701 1.375 44.0701H9.625C9.98967 44.0701 10.3394 43.9252 10.5973 43.6673C10.8551 43.4095 11 43.0597 11 42.6951C11 41.6011 10.5654 40.5518 9.79182 39.7783C9.01823 39.0047 7.96902 38.5701 6.875 38.5701Z" fill="#605DBA"/>
<path d="M22 36.7362C23.5188 36.7362 24.75 35.505 24.75 33.9862C24.75 32.4674 23.5188 31.2362 22 31.2362C20.4812 31.2362 19.25 32.4674 19.25 33.9862C19.25 35.505 20.4812 36.7362 22 36.7362Z" fill="#605DBA"/>
<path d="M23.375 38.5701H20.625C19.531 38.5701 18.4818 39.0047 17.7082 39.7783C16.9346 40.5518 16.5 41.6011 16.5 42.6951C16.5 43.0597 16.6449 43.4095 16.9027 43.6673C17.1606 43.9252 17.5103 44.0701 17.875 44.0701H26.125C26.4897 44.0701 26.8394 43.9252 27.0973 43.6673C27.3551 43.4095 27.5 43.0597 27.5 42.6951C27.5 41.6011 27.0654 40.5518 26.2918 39.7783C25.5182 39.0047 24.469 38.5701 23.375 38.5701Z" fill="#605DBA"/>
<path d="M38.5 36.7362C40.0188 36.7362 41.25 35.505 41.25 33.9862C41.25 32.4674 40.0188 31.2362 38.5 31.2362C36.9812 31.2362 35.75 32.4674 35.75 33.9862C35.75 35.505 36.9812 36.7362 38.5 36.7362Z" fill="#605DBA"/>
<path d="M39.875 38.5701H37.125C36.031 38.5701 34.9818 39.0047 34.2082 39.7783C33.4346 40.5518 33 41.6011 33 42.6951C33 43.0597 33.1449 43.4095 33.4027 43.6673C33.6606 43.9252 34.0103 44.0701 34.375 44.0701H42.625C42.9897 44.0701 43.3394 43.9252 43.5973 43.6673C43.8551 43.4095 44 43.0597 44 42.6951C44 41.6011 43.5654 40.5518 42.7918 39.7783C42.0182 39.0047 40.969 38.5701 39.875 38.5701Z" fill="#605DBA"/>
</g>
<defs>
<clipPath id="clip0_1_87">
<rect width="44" height="44" fill="white" transform="translate(0 0.0700684)"/>
</clipPath>
</defs>
</svg>
