<svg width="44" height="45" viewBox="0 0 44 45" fill="none" xmlns="http://www.w3.org/2000/svg">
<g clip-path="url(#clip0_1_104)">
<path d="M43.0684 21.7503L33.4434 18.4847C33.1559 18.3868 32.8441 18.3868 32.5566 18.4847L22.9316 21.7503C22.6599 21.8429 22.4241 22.0181 22.257 22.2514C22.09 22.4847 22.0001 22.7645 22 23.0514V30.4197C22 39.4122 32.0341 43.7778 32.4638 43.9635C32.6338 44.0337 32.816 44.0699 33 44.07C33.1844 44.0704 33.3669 44.033 33.5362 43.96C33.9659 43.7778 44 39.4088 44 30.4197V23.0514C43.9999 22.7645 43.91 22.4847 43.743 22.2514C43.5759 22.0181 43.3401 21.8429 43.0684 21.7503ZM39.0259 28.7027L33.9848 35.1188C33.832 35.3133 33.6414 35.4749 33.4244 35.5938C33.2075 35.7126 32.9687 35.7863 32.7225 35.8104C32.4763 35.8345 32.2277 35.8085 31.9919 35.7339C31.756 35.6594 31.5376 35.5378 31.35 35.3766L28.1411 32.6266C27.7779 32.3088 27.5547 31.8605 27.5201 31.3792C27.4855 30.8978 27.6422 30.4222 27.9561 30.0557C28.2701 29.6892 28.7161 29.4613 29.197 29.4217C29.678 29.3821 30.1552 29.5338 30.525 29.8439L32.2816 31.3513L36.1436 26.4408C36.444 26.0586 36.8839 25.8114 37.3666 25.7535C37.8493 25.6956 38.3352 25.8319 38.7174 26.1323C39.0996 26.4327 39.3469 26.8726 39.4047 27.3553C39.4626 27.838 39.3263 28.3239 39.0259 28.7061V28.7027Z" fill="#F857A6"/>
<path d="M34.8339 0.0700684H5.5C4.04131 0.0700684 2.64236 0.649531 1.61091 1.68098C0.579463 2.71243 0 4.11138 0 5.57007C0 7.02876 0.579463 8.42771 1.61091 9.45916C2.64236 10.4906 4.04131 11.0701 5.5 11.0701H34.8339C36.2926 11.0701 37.6915 10.4906 38.723 9.45916C39.7544 8.42771 40.3339 7.02876 40.3339 5.57007C40.3339 4.11138 39.7544 2.71243 38.723 1.68098C37.6915 0.649531 36.2926 0.0700684 34.8339 0.0700684ZM5.5 7.40397C5.13729 7.40397 4.78272 7.29642 4.48114 7.09491C4.17955 6.89339 3.9445 6.60698 3.80569 6.27187C3.66689 5.93677 3.63057 5.56803 3.70133 5.21229C3.77209 4.85655 3.94676 4.52978 4.20323 4.2733C4.45971 4.01682 4.78648 3.84216 5.14222 3.7714C5.49797 3.70064 5.8667 3.73696 6.20181 3.87576C6.53691 4.01456 6.82333 4.24962 7.02484 4.5512C7.22635 4.85279 7.33391 5.20736 7.33391 5.57007C7.33391 6.05645 7.14069 6.52291 6.79677 6.86684C6.45284 7.21076 5.98638 7.40397 5.5 7.40397ZM12.8339 7.40397C12.4712 7.40397 12.1166 7.29642 11.815 7.09491C11.5135 6.89339 11.2784 6.60698 11.1396 6.27187C11.0008 5.93677 10.9645 5.56803 11.0352 5.21229C11.106 4.85655 11.2807 4.52978 11.5371 4.2733C11.7936 4.01682 12.1204 3.84216 12.4761 3.7714C12.8319 3.70064 13.2006 3.73696 13.5357 3.87576C13.8708 4.01456 14.1572 4.24962 14.3587 4.5512C14.5603 4.85279 14.6678 5.20736 14.6678 5.57007C14.6678 6.05645 14.4746 6.52291 14.1307 6.86684C13.7867 7.21076 13.3203 7.40397 12.8339 7.40397ZM5.5 14.7362C4.04131 14.7362 2.64236 15.3156 1.61091 16.3471C0.579463 17.3785 1.15904e-07 18.7775 1.15904e-07 20.2362C1.15904e-07 21.6949 0.579463 23.0938 1.61091 24.1252C2.64236 25.1567 4.04131 25.7362 5.5 25.7362H18.3339V23.0601C18.334 22.0031 18.6658 20.9727 19.2825 20.1143C19.8992 19.2558 20.7697 18.6125 21.7714 18.2751L31.3775 15.0094C31.9021 14.8276 32.4534 14.7346 33.0086 14.7344L5.5 14.7362ZM5.5 22.0701C5.13729 22.0701 4.78272 21.9625 4.48114 21.761C4.17955 21.5595 3.9445 21.2731 3.80569 20.938C3.66689 20.6029 3.63057 20.2341 3.70133 19.8784C3.77209 19.5226 3.94676 19.1959 4.20323 18.9394C4.45971 18.6829 4.78648 18.5083 5.14222 18.4375C5.49797 18.3667 5.8667 18.403 6.20181 18.5419C6.53691 18.6807 6.82333 18.9157 7.02484 19.2173C7.22635 19.5189 7.33391 19.8734 7.33391 20.2362C7.33255 20.7221 7.13889 21.1878 6.79526 21.5314C6.45163 21.8751 5.98596 22.0687 5.5 22.0701ZM12.8339 22.0701C12.4712 22.0701 12.1166 21.9625 11.815 21.761C11.5135 21.5595 11.2784 21.2731 11.1396 20.938C11.0008 20.6029 10.9645 20.2341 11.0352 19.8784C11.106 19.5226 11.2807 19.1959 11.5371 18.9394C11.7936 18.6829 12.1204 18.5083 12.4761 18.4375C12.8319 18.3667 13.2006 18.403 13.5357 18.5419C13.8708 18.6807 14.1572 18.9157 14.3587 19.2173C14.5603 19.5189 14.6678 19.8734 14.6678 20.2362C14.6665 20.7221 14.4728 21.1878 14.1292 21.5314C13.7855 21.8751 13.3199 22.0687 12.8339 22.0701ZM18.3339 30.4112V29.4023H5.5C4.04131 29.4023 2.64236 29.9817 1.61091 31.0132C0.579463 32.0446 0 33.4436 0 34.9023C0 36.3609 0.579463 37.7599 1.61091 38.7913C2.64236 39.8228 4.04131 40.4023 5.5 40.4023H21.945C19.8361 37.7262 18.3339 34.3712 18.3339 30.4112ZM5.5 36.7362C5.13721 36.7362 4.78258 36.6286 4.48096 36.427C4.17934 36.2254 3.94428 35.9389 3.80553 35.6037C3.66677 35.2685 3.63056 34.8996 3.70146 34.5438C3.77236 34.1881 3.94719 33.8613 4.20384 33.6049C4.46049 33.3485 4.78742 33.1739 5.14328 33.1034C5.49913 33.0328 5.86792 33.0694 6.203 33.2084C6.53807 33.3475 6.82437 33.5828 7.02567 33.8846C7.22698 34.1865 7.33425 34.5412 7.33391 34.904C7.33209 35.3896 7.13824 35.8549 6.79466 36.1981C6.45108 36.5414 5.98567 36.7348 5.5 36.7362ZM12.8339 36.7362C12.4711 36.7362 12.1165 36.6286 11.8149 36.427C11.5132 36.2254 11.2782 35.9389 11.1394 35.6037C11.0007 35.2685 10.9645 34.8996 11.0354 34.5438C11.1063 34.1881 11.2811 33.8613 11.5377 33.6049C11.7944 33.3485 12.1213 33.1739 12.4772 33.1034C12.833 33.0328 13.2018 33.0694 13.5369 33.2084C13.872 33.3475 14.1583 33.5828 14.3596 33.8846C14.5609 34.1865 14.6682 34.5412 14.6678 34.904C14.666 35.3896 14.4721 35.8549 14.1286 36.1981C13.785 36.5414 13.3196 36.7348 12.8339 36.7362Z" fill="#605DBA"/>
</g>
<defs>
<clipPath id="clip0_1_104">
<rect width="44" height="44" fill="white" transform="translate(0 0.0700684)"/>
</clipPath>
</defs>
</svg>
