<svg width="31" height="31" viewBox="0 0 31 31" fill="none" xmlns="http://www.w3.org/2000/svg">
<g clip-path="url(#clip0_1_268)">
<path d="M15.2494 12.6604C11.2728 12.6651 7.46029 14.2468 4.64837 17.0588C1.83644 19.8707 0.254652 23.6832 0.25 27.6598C0.250931 28.3226 0.514731 28.958 0.983532 29.4266C1.45233 29.8952 2.08785 30.1587 2.75068 30.1593H27.7481C28.411 30.1587 29.0465 29.8952 29.5153 29.4266C29.9841 28.958 30.2479 28.3226 30.2488 27.6598C30.2488 19.3902 23.5202 12.6604 15.2494 12.6604ZM15.2494 26.4095C14.2605 26.4095 13.2937 26.1162 12.4715 25.5668C11.6492 25.0174 11.0083 24.2364 10.6298 23.3228C10.2514 22.4091 10.1524 21.4037 10.3453 20.4338C10.5382 19.4638 11.0145 18.5729 11.7137 17.8736C12.413 17.1743 13.304 16.6981 14.2739 16.5052C15.2439 16.3122 16.2492 16.4112 17.1629 16.7897C18.0766 17.1682 18.8575 17.809 19.4069 18.6313C19.9564 19.4536 20.2496 20.4203 20.2496 21.4093C20.2484 22.735 19.7212 24.0061 18.7837 24.9436C17.8463 25.881 16.5752 26.4082 15.2494 26.4095Z" fill="#F857A6"/>
<path d="M4.16977 13.9107C3.64753 13.9129 3.136 13.7626 2.69795 13.4783C2.42368 13.2999 2.16461 13.0993 1.92338 12.8783C1.28135 12.2911 0.798967 11.5506 0.521445 10.726C0.243924 9.90141 0.180362 9.01987 0.336719 8.16402C0.88865 5.23562 4.14868 3.33139 6.55444 2.15253C9.264 0.837147 12.2375 0.155896 15.2494 0.160423C19.3239 0.160423 23.4358 1.40491 26.5294 3.57513C27.9298 4.55947 29.602 5.93168 30.0918 7.84176C30.3149 8.74033 30.292 9.68239 30.0254 10.569C29.7588 11.4557 29.2583 12.2541 28.5766 12.8806C28.3396 13.0964 28.0853 13.2924 27.8161 13.4665C27.3432 13.7701 26.7897 13.924 26.228 13.9081C25.6663 13.8922 25.1224 13.7073 24.6674 13.3775L20.3 10.2592C19.325 9.56318 18.936 8.3351 19.3532 7.26874C19.3754 7.20663 19.4012 7.15156 19.4282 7.08593C16.715 6.18348 13.7826 6.18348 11.0695 7.08593L11.148 7.2664C11.5664 8.33276 11.1738 9.56318 10.2012 10.2569L5.83025 13.3751C5.34795 13.7234 4.76817 13.9107 4.17329 13.9107H4.16977Z" fill="#605DBA"/>
</g>
<defs>
<clipPath id="clip0_1_268">
<rect width="30" height="30" fill="white" transform="translate(0.25 0.159912)"/>
</clipPath>
</defs>
</svg>
