<svg width="45" height="45" viewBox="0 0 45 45" fill="none" xmlns="http://www.w3.org/2000/svg">
<g clip-path="url(#clip0_1_176)">
<path d="M6.13999 19.98C5.7671 19.981 5.40276 19.8684 5.09554 19.657C4.78832 19.4457 4.55282 19.1457 4.42044 18.7971C4.28806 18.4485 4.26509 18.0679 4.35459 17.7059C4.44409 17.3439 4.64181 17.0178 4.92139 16.7711L13.1714 9.43716C13.3654 9.26429 13.5941 9.13484 13.8422 9.05748C14.0903 8.98012 14.3521 8.95663 14.61 8.98857L28.8756 10.7194L36.9537 3.0606C37.3072 2.7251 37.7795 2.54377 38.2667 2.55651C38.7539 2.56924 39.2161 2.77499 39.5516 3.12849C39.8871 3.482 40.0685 3.9543 40.0557 4.4415C40.043 4.9287 39.8372 5.39088 39.4837 5.72638L30.7748 13.9764C30.5789 14.1611 30.3449 14.3007 30.0892 14.3853C29.8335 14.47 29.5625 14.4976 29.295 14.4662L14.9898 12.732L7.35858 19.5211C7.02346 19.8207 6.5895 19.9859 6.13999 19.9851V19.98Z" fill="#F857A6"/>
<path d="M39.5989 10.8139C39.418 10.8143 39.2388 10.7789 39.0716 10.7099C38.9043 10.6409 38.7524 10.5396 38.6244 10.4117L32.21 3.9939C32.0176 3.8017 31.8865 3.55676 31.8333 3.29006C31.7801 3.02335 31.8072 2.74686 31.9111 2.49555C32.0151 2.24423 32.1912 2.02939 32.4173 1.87819C32.6433 1.72699 32.9091 1.64621 33.1811 1.64609H39.5972C39.9618 1.64609 40.3116 1.79095 40.5694 2.04882C40.8273 2.30668 40.9722 2.65641 40.9722 3.02109V9.43718C40.972 9.70932 40.891 9.97529 40.7396 10.2014C40.5881 10.4275 40.373 10.6036 40.1214 10.7073C39.9563 10.7781 39.7785 10.8144 39.5989 10.8139Z" fill="#F857A6"/>
<path d="M13.4739 33.2711V38.3122H2.47389V33.2711C2.47389 32.6634 2.71527 32.0807 3.14494 31.651C3.5746 31.2214 4.15735 30.98 4.76499 30.98H11.1811C11.7889 30.98 12.3718 31.2213 12.8017 31.6509C13.2317 32.0805 13.4734 32.6633 13.4739 33.2711ZM28.14 22.2711V38.3122H17.14V22.2711C17.14 21.6634 17.3814 21.0807 17.811 20.651C18.2407 20.2214 18.8234 19.98 19.4311 19.98H25.8472C26.1482 19.9798 26.4463 20.0389 26.7245 20.1539C27.0026 20.2689 27.2554 20.4376 27.4683 20.6504C27.6813 20.8632 27.8502 21.1158 27.9654 21.3939C28.0807 21.672 28.14 21.9701 28.14 22.2711ZM42.8061 25.9389V38.3139H31.8061V25.9389C31.8056 25.6378 31.8646 25.3396 31.9795 25.0613C32.0945 24.7831 32.2632 24.5302 32.476 24.3172C32.6888 24.1042 32.9416 23.9353 33.2197 23.8202C33.4979 23.705 33.7961 23.6458 34.0972 23.6461H40.515C40.8161 23.6456 41.1144 23.7046 41.3927 23.8197C41.671 23.9348 41.9238 24.1037 42.1367 24.3167C42.3495 24.5297 42.5182 24.7827 42.6331 25.0611C42.748 25.3394 42.8068 25.6377 42.8061 25.9389Z" fill="#605DBA"/>
<path d="M43.265 43.8139H2.01498C1.65031 43.8139 1.30057 43.669 1.04271 43.4111C0.78485 43.1533 0.639984 42.8035 0.639984 42.4389C0.639984 42.0742 0.78485 41.7245 1.04271 41.4666C1.30057 41.2087 1.65031 41.0639 2.01498 41.0639H43.265C43.6297 41.0639 43.9794 41.2087 44.2373 41.4666C44.4951 41.7245 44.64 42.0742 44.64 42.4389C44.64 42.8035 44.4951 43.1533 44.2373 43.4111C43.9794 43.669 43.6297 43.8139 43.265 43.8139Z" fill="#F857A6"/>
</g>
<defs>
<clipPath id="clip0_1_176">
<rect width="44" height="44" fill="white" transform="translate(0.639984 0.72998)"/>
</clipPath>
</defs>
</svg>
