<svg width="45" height="45" viewBox="0 0 45 45" fill="none" xmlns="http://www.w3.org/2000/svg">
<g clip-path="url(#clip0_1_167)">
<path d="M31.4652 14.3741L29.4499 16.3894C29.7846 17.0251 30.0667 17.687 30.2935 18.3686C31.1404 18.2206 31.9987 18.1471 32.8585 18.1487H33.0974C32.717 16.8259 32.1685 15.5573 31.4652 14.3741ZM0.769989 22.7291C0.773429 25.092 1.28401 27.4267 2.26723 29.5753C3.25045 31.7239 4.68341 33.6365 6.46927 35.1838C8.25514 36.731 10.3523 37.8769 12.6191 38.5441C14.8859 39.2112 17.2694 39.384 19.6087 39.0509C19.1983 38.2021 18.8731 37.3146 18.638 36.4016C18.1817 36.4536 17.7228 36.4783 17.2635 36.4755C13.618 36.4755 10.1218 35.0273 7.54402 32.4495C4.96624 29.8717 3.51806 26.3755 3.51806 22.73C3.51806 19.0845 4.96624 15.5882 7.54402 13.0105C10.1218 10.4327 13.618 8.9845 17.2635 8.9845C19.4793 8.9829 21.6618 9.5238 23.6204 10.56L25.6357 8.54467C23.1057 7.03084 20.2119 6.23273 17.2635 6.23557C12.8911 6.24194 8.69963 7.98169 5.60787 11.0735C2.5161 14.1652 0.776352 18.3567 0.769989 22.7291Z" fill="#F857A6"/>
<path d="M7.18358 22.7291C7.18812 25.4012 8.25152 27.9627 10.1408 29.8523C12.0302 31.742 14.5914 32.8058 17.2635 32.8108C17.5759 32.8105 17.888 32.7921 18.1982 32.7558C18.194 31.8123 18.2838 30.8707 18.4662 29.945C18.0697 30.0194 17.667 30.0563 17.2635 30.055C15.3192 30.055 13.4546 29.2826 12.0797 27.9078C10.7049 26.5329 9.9325 24.6683 9.9325 22.724C9.9325 20.7796 10.7049 18.915 12.0797 17.5401C13.4546 16.1653 15.3192 15.3929 17.2635 15.3929C17.7259 15.3846 18.1875 15.433 18.638 15.5372L20.8561 13.3192C19.7123 12.8665 18.4936 12.6334 17.2635 12.632C14.5892 12.6383 12.0264 13.7047 10.1369 15.5974C8.24742 17.4901 7.18539 20.0547 7.18358 22.7291Z" fill="#F857A6"/>
<path d="M17.2635 19.0662C16.5387 19.0662 15.8301 19.2811 15.2274 19.6839C14.6247 20.0866 14.155 20.6591 13.8777 21.3288C13.6004 21.9985 13.5279 22.7355 13.6694 23.4464C13.811 24.1573 14.1602 24.8103 14.6728 25.3227C15.1855 25.8352 15.8387 26.1841 16.5497 26.3253C17.2606 26.4665 17.9975 26.3937 18.6671 26.116C19.3367 25.8384 19.909 25.3684 20.3114 24.7656C20.7139 24.1627 20.9286 23.454 20.9282 22.7291C20.925 21.7583 20.5379 20.8282 19.8512 20.1419C19.1646 19.4556 18.2343 19.0689 17.2635 19.0662ZM17.2635 23.6466C17.0824 23.6466 16.9054 23.5929 16.7548 23.4922C16.6042 23.3916 16.4868 23.2486 16.4175 23.0813C16.3482 22.9139 16.3301 22.7298 16.3654 22.5522C16.4007 22.3745 16.488 22.2114 16.616 22.0833C16.7441 21.9552 16.9073 21.868 17.0849 21.8327C17.2625 21.7974 17.4467 21.8155 17.614 21.8848C17.7813 21.9541 17.9243 22.0715 18.025 22.2221C18.1256 22.3727 18.1793 22.5497 18.1793 22.7308C18.1804 22.8514 18.1575 22.971 18.1119 23.0826C18.0663 23.1942 17.9989 23.2956 17.9136 23.3809C17.8284 23.4662 17.727 23.5336 17.6153 23.5792C17.5037 23.6248 17.3841 23.6477 17.2635 23.6466Z" fill="#F857A6"/>
<path d="M17.2807 24.1036C17.0089 24.1038 16.7432 24.0234 16.5171 23.8726C16.2909 23.7218 16.1146 23.5074 16.0103 23.2564C15.9061 23.0054 15.8786 22.7291 15.9313 22.4625C15.984 22.1958 16.1146 21.9508 16.3066 21.7584L28.218 9.84352C28.4779 9.59664 28.8239 9.46104 29.1823 9.46563C29.5407 9.47022 29.8831 9.61463 30.1366 9.86809C30.3901 10.1215 30.5345 10.464 30.5391 10.8224C30.5436 11.1808 30.408 11.5268 30.1612 11.7867L18.2497 23.6981C17.9931 23.9562 17.6447 24.102 17.2807 24.1036Z" fill="#605DBA"/>
<path d="M34.233 11.7334H29.6509C29.2864 11.7334 28.9368 11.5886 28.679 11.3308C28.4212 11.0731 28.2764 10.7235 28.2764 10.359V5.77856C28.2767 5.41387 28.4205 5.06394 28.6767 4.80441L32.3414 1.13975C32.5336 0.947306 32.7786 0.816227 33.0454 0.763103C33.3122 0.70998 33.5887 0.7372 33.84 0.841319C34.0913 0.945438 34.306 1.12177 34.457 1.348C34.608 1.57423 34.6885 1.84018 34.6883 2.11218V5.32155H37.8977C38.1697 5.32134 38.4356 5.40183 38.6618 5.55284C38.8881 5.70386 39.0644 5.9186 39.1685 6.16988C39.2726 6.42117 39.2999 6.69769 39.2467 6.96445C39.1936 7.23122 39.0625 7.47622 38.8701 7.66845L35.2054 11.3331C34.9472 11.5902 34.5974 11.7342 34.233 11.7334ZM32.8585 20.8977C30.5023 20.8973 28.1988 21.5957 26.2395 22.9045C24.2801 24.2134 22.7529 26.0738 21.851 28.2507C20.9491 30.4275 20.7129 32.8229 21.1724 35.1339C21.6318 37.4449 22.7663 39.5678 24.4323 41.2341C26.0984 42.9003 28.2211 44.0351 30.5321 44.4949C32.843 44.9548 35.2385 44.7189 37.4154 43.8173C39.5923 42.9157 41.453 41.3887 42.7621 39.4296C44.0712 37.4704 44.77 35.1671 44.77 32.8108C44.7673 29.6524 43.5115 26.6241 41.2783 24.3906C39.0451 22.157 36.017 20.9008 32.8585 20.8977ZM37.9904 30.5378L32.039 36.9514C31.7975 37.2129 31.4639 37.3705 31.1085 37.391C30.7532 37.4115 30.4037 37.2933 30.1337 37.0613L26.926 34.3124C26.7877 34.1954 26.6739 34.0521 26.5912 33.8909C26.5084 33.7297 26.4584 33.5537 26.4439 33.3731C26.4294 33.1925 26.4508 33.0108 26.5068 32.8385C26.5628 32.6661 26.6523 32.5066 26.7702 32.369C26.8881 32.2314 27.032 32.1185 27.1937 32.0367C27.3554 31.9549 27.5317 31.9059 27.7124 31.8926C27.8931 31.8792 28.0747 31.9016 28.2467 31.9587C28.4187 32.0157 28.5777 32.1062 28.7145 32.2249L30.9206 34.1148L35.9786 28.6702C36.2265 28.4028 36.5704 28.2447 36.9349 28.2309C37.2993 28.217 37.6543 28.3485 37.9217 28.5964C38.1892 28.8442 38.3472 29.1882 38.3611 29.5526C38.375 29.917 38.2435 30.272 37.9956 30.5395L37.9904 30.5378Z" fill="#605DBA"/>
</g>
<defs>
<clipPath id="clip0_1_167">
<rect width="44" height="44" fill="white" transform="translate(0.769989 0.72998)"/>
</clipPath>
</defs>
</svg>
